# xmcd CD database file
#
# Track frame offsets:
#	182
#	11930
#	24500
#	38085
#	52200
#	65610
#	80100
#	95577
#	109300
#	121850
#	133617
#	148850
#	161930
#	174932
#	187465
#	200062
#	214245
#	227042
#	239730
#	253990
#	267245
#	281267
#	296010
#	308290
#
# Disc length: 4272 seconds
#
# Revision: 0
# Processed by: cddbd v1.4PL0 Copyright (c) Steve Scherf et al.
# Submitted via: CDex 1.50
#
DISCID=7f10ae18
DTITLE=Johnny Dodds - Wild Man Blues
DYEAR=1997
DGENRE=Jazz
TTITLE0=Canal Street Blues
TTITLE1=Yes! I'm In The Barrel
TTITLE2=Weary Blues
TTITLE3=Gatemouth
TTITLE4=Too Tight
TTITLE5=Mixed Salad
TTITLE6=Flat Foot
TTITLE7=Wild Man Blues
TTITLE8=When Erastus Plays His Old Kazoo
TTITLE9=Clarinet Wobble
TTITLE10=Wolverine Blues
TTITLE11=Mr. Jelly Lord
TTITLE12=Hot Stuff
TTITLE13=Ballin' A Jack
TTITLE14=Grandma's Ball
TTITLE15=South Bound Rag
TTITLE16=Get 'Em Again Blues
TTITLE17=Lady Love
TTITLE18=Bucktown Stomp
TTITLE19=Bull Fiddle Blues
TTITLE20=Indigo Stomp
TTITLE21=Heah' Me Talkin'
TTITLE22=Melancholy
TTITLE23=Gravier Street Blues
EXTD=YEAR: 1997
EXTT0=
EXTT1=
EXTT2=
EXTT3=
EXTT4=
EXTT5=
EXTT6=
EXTT7=
EXTT8=
EXTT9=
EXTT10=
EXTT11=
EXTT12=
EXTT13=
EXTT14=
EXTT15=
EXTT16=
EXTT17=
EXTT18=
EXTT19=
EXTT20=
EXTT21=
EXTT22=
EXTT23=
PLAYORDER=
